<svg width="60" height="60" viewBox="0 0 60 60" fill="none" xmlns="http://www.w3.org/2000/svg">
<rect width="60" height="60" rx="4" fill="black"/>
<path d="M18 44.0909V15H30.6136C32.8295 15 34.6903 15.2983 36.196 15.8949C37.7112 16.4915 38.8523 17.3343 39.6193 18.4233C40.3958 19.5123 40.7841 20.7955 40.7841 22.2727C40.7841 23.3428 40.5473 24.3182 40.0739 25.1989C39.6098 26.0795 38.9564 26.8182 38.1136 27.4148C37.2708 28.0019 36.286 28.4091 35.1591 28.6364V28.9205C36.4091 28.9678 37.5455 29.285 38.5682 29.8722C39.5909 30.4498 40.4053 31.25 41.0114 32.2727C41.6174 33.286 41.9205 34.4792 41.9205 35.8523C41.9205 37.4432 41.5038 38.8589 40.6705 40.0994C39.8466 41.34 38.6723 42.3153 37.1477 43.0256C35.6231 43.7358 33.8049 44.0909 31.6932 44.0909H18ZM25.8977 37.7841H29.5909C30.9167 37.7841 31.911 37.5379 32.5739 37.0455C33.2367 36.5436 33.5682 35.8049 33.5682 34.8295C33.5682 34.1477 33.4119 33.5701 33.0994 33.0966C32.7869 32.6231 32.3419 32.2633 31.7642 32.017C31.196 31.7708 30.5095 31.6477 29.7045 31.6477H25.8977V37.7841ZM25.8977 26.7614H29.1364C29.8277 26.7614 30.4384 26.6525 30.9688 26.4347C31.4991 26.2169 31.911 25.9044 32.2045 25.4972C32.5076 25.0805 32.6591 24.5739 32.6591 23.9773C32.6591 23.0777 32.3371 22.3911 31.6932 21.9176C31.0492 21.4347 30.2348 21.1932 29.25 21.1932H25.8977V26.7614Z" fill="white"/>
</svg>
