<svg width="180" height="60" viewBox="0 0 180 60" fill="none" xmlns="http://www.w3.org/2000/svg">
<rect width="180" height="60" rx="4" fill="black"/>
<path d="M17.875 45V15.9091H30.4886C32.7045 15.9091 34.5653 16.2074 36.071 16.804C37.5862 17.4006 38.7273 18.2434 39.4943 19.3324C40.2708 20.4214 40.6591 21.7045 40.6591 23.1818C40.6591 24.2519 40.4223 25.2273 39.9489 26.108C39.4848 26.9886 38.8314 27.7273 37.9886 28.3239C37.1458 28.911 36.161 29.3182 35.0341 29.5455V29.8295C36.2841 29.8769 37.4205 30.1941 38.4432 30.7812C39.4659 31.3589 40.2803 32.1591 40.8864 33.1818C41.4924 34.1951 41.7955 35.3883 41.7955 36.7614C41.7955 38.3523 41.3788 39.768 40.5455 41.0085C39.7216 42.2491 38.5473 43.2244 37.0227 43.9347C35.4981 44.6449 33.6799 45 31.5682 45H17.875ZM25.7727 38.6932H29.4659C30.7917 38.6932 31.786 38.447 32.4489 37.9545C33.1117 37.4527 33.4432 36.714 33.4432 35.7386C33.4432 35.0568 33.2869 34.4792 32.9744 34.0057C32.6619 33.5322 32.2169 33.1723 31.6392 32.9261C31.071 32.6799 30.3845 32.5568 29.5795 32.5568H25.7727V38.6932ZM25.7727 27.6705H29.0114C29.7027 27.6705 30.3134 27.5616 30.8438 27.3438C31.3741 27.1259 31.786 26.8134 32.0795 26.4062C32.3826 25.9896 32.5341 25.483 32.5341 24.8864C32.5341 23.9867 32.2121 23.3002 31.5682 22.8267C30.9242 22.3438 30.1098 22.1023 29.125 22.1023H25.7727V27.6705Z" fill="white"/>
<path d="M49.1869 45.3409C47.7949 45.3409 46.5638 45.1136 45.4937 44.6591C44.4331 44.1951 43.5998 43.4943 42.9937 42.5568C42.3877 41.6193 42.0847 40.4261 42.0847 38.9773C42.0847 37.7841 42.2883 36.7661 42.6955 35.9233C43.1027 35.071 43.6708 34.375 44.4 33.8352C45.1292 33.2955 45.9767 32.8835 46.9426 32.5994C47.918 32.3153 48.9691 32.1307 50.096 32.0455C51.3176 31.9508 52.2977 31.8371 53.0364 31.7045C53.7845 31.5625 54.3242 31.3684 54.6557 31.1222C54.9871 30.8665 55.1528 30.5303 55.1528 30.1136V30.0568C55.1528 29.4886 54.935 29.053 54.4994 28.75C54.0638 28.447 53.5051 28.2955 52.8233 28.2955C52.0752 28.2955 51.4644 28.4612 50.9909 28.7926C50.5269 29.1146 50.2475 29.6117 50.1528 30.2841H42.9369C43.0316 28.9583 43.453 27.7367 44.2011 26.6193C44.9587 25.4924 46.0619 24.5928 47.5108 23.9205C48.9597 23.2386 50.7684 22.8977 52.9369 22.8977C54.4994 22.8977 55.9009 23.0824 57.1415 23.4517C58.382 23.8116 59.4379 24.3182 60.3091 24.9716C61.1803 25.6155 61.8432 26.3731 62.2977 27.2443C62.7617 28.1061 62.9938 29.0436 62.9938 30.0568V45H55.6642V41.9318H55.4938C55.0581 42.7462 54.5278 43.4044 53.9028 43.9062C53.2873 44.4081 52.5818 44.7727 51.7864 45C51.0004 45.2273 50.1339 45.3409 49.1869 45.3409ZM51.7438 40.3977C52.3403 40.3977 52.8991 40.2746 53.4199 40.0284C53.9502 39.7822 54.3811 39.4271 54.7125 38.9631C55.0439 38.4991 55.2097 37.9356 55.2097 37.2727V35.4545C55.0013 35.5398 54.7788 35.6203 54.542 35.696C54.3148 35.7718 54.0686 35.8428 53.8034 35.9091C53.5477 35.9754 53.2731 36.0369 52.9795 36.0938C52.6955 36.1506 52.3972 36.2027 52.0847 36.25C51.4786 36.3447 50.9814 36.5009 50.5932 36.7188C50.2144 36.9271 49.9303 37.1875 49.7409 37.5C49.561 37.803 49.471 38.1439 49.471 38.5227C49.471 39.1288 49.6841 39.5928 50.1102 39.9148C50.5364 40.2367 51.0809 40.3977 51.7438 40.3977Z" fill="white"/>
<path d="M85.0834 30.2841H77.8675C77.8296 29.839 77.6733 29.4555 77.3987 29.1335C77.1241 28.8116 76.769 28.5653 76.3334 28.3949C75.9072 28.215 75.4338 28.125 74.9129 28.125C74.2406 28.125 73.6629 28.2481 73.18 28.4943C72.697 28.7405 72.4603 29.0909 72.4697 29.5455C72.4603 29.8674 72.5976 30.1657 72.8817 30.4403C73.1752 30.715 73.7387 30.928 74.572 31.0795L79.0038 31.875C81.2387 32.2822 82.9006 32.9687 83.9896 33.9347C85.0881 34.8911 85.6421 36.1742 85.6516 37.7841C85.6421 39.3371 85.1781 40.6866 84.2595 41.8324C83.3504 42.9687 82.1052 43.8494 80.5237 44.4744C78.9517 45.09 77.1572 45.3977 75.1402 45.3977C71.8069 45.3977 69.198 44.7159 67.3135 43.3523C65.4385 41.9886 64.3921 40.1894 64.1743 37.9545H71.9584C72.0625 38.6458 72.4035 39.1809 72.9811 39.5597C73.5682 39.929 74.3069 40.1136 75.197 40.1136C75.9167 40.1136 76.5086 39.9905 76.9726 39.7443C77.4461 39.4981 77.6875 39.1477 77.697 38.6932C77.6875 38.2765 77.4792 37.9451 77.072 37.6989C76.6743 37.4527 76.0493 37.2538 75.197 37.1023L71.3334 36.4205C69.108 36.0322 67.4413 35.2936 66.3334 34.2045C65.2254 33.1155 64.6762 31.714 64.6857 30C64.6762 28.4848 65.0739 27.2017 65.8788 26.1506C66.6932 25.09 67.8533 24.285 69.3589 23.7358C70.8741 23.1771 72.6686 22.8977 74.7425 22.8977C77.8959 22.8977 80.3817 23.5511 82.1999 24.858C84.0275 26.1648 84.9887 27.9735 85.0834 30.2841Z" fill="white"/>
<path d="M87.0558 45V23.1818H94.8967V45H87.0558ZM90.9763 20.9091C89.9157 20.9091 89.0066 20.5587 88.249 19.858C87.4914 19.1572 87.1126 18.3144 87.1126 17.3295C87.1126 16.3447 87.4914 15.5019 88.249 14.8011C89.0066 14.1004 89.9157 13.75 90.9763 13.75C92.0463 13.75 92.9554 14.1004 93.7035 14.8011C94.4611 15.5019 94.8399 16.3447 94.8399 17.3295C94.8399 18.3144 94.4611 19.1572 93.7035 19.858C92.9554 20.5587 92.0463 20.9091 90.9763 20.9091Z" fill="white"/>
<path d="M107.803 45.3977C105.436 45.3977 103.409 44.929 101.724 43.9915C100.038 43.0445 98.7454 41.7282 97.8457 40.0426C96.9461 38.3475 96.4963 36.3826 96.4963 34.1477C96.4963 31.9129 96.9461 29.9527 97.8457 28.267C98.7454 26.572 100.038 25.2557 101.724 24.3182C103.409 23.3712 105.436 22.8977 107.803 22.8977C109.943 22.8977 111.795 23.286 113.357 24.0625C114.929 24.8295 116.146 25.9186 117.008 27.3295C117.869 28.7311 118.305 30.3788 118.314 32.2727H111.042C110.938 31.1269 110.606 30.2557 110.047 29.6591C109.498 29.053 108.788 28.75 107.917 28.75C107.235 28.75 106.638 28.9489 106.127 29.3466C105.616 29.7348 105.218 30.3267 104.934 31.1222C104.65 31.9081 104.508 32.8977 104.508 34.0909C104.508 35.2841 104.65 36.2784 104.934 37.0739C105.218 37.8598 105.616 38.4517 106.127 38.8494C106.638 39.2377 107.235 39.4318 107.917 39.4318C108.494 39.4318 109.006 39.2992 109.451 39.0341C109.896 38.7595 110.256 38.3617 110.53 37.8409C110.814 37.3106 110.985 36.6667 111.042 35.9091H118.314C118.286 37.8314 117.846 39.5076 116.993 40.9375C116.141 42.358 114.934 43.4564 113.371 44.233C111.818 45.0095 109.962 45.3977 107.803 45.3977Z" fill="white"/>
<path d="M143.421 15.9091H151.318V34.5455C151.318 36.7614 150.788 38.679 149.727 40.2983C148.676 41.9081 147.208 43.1534 145.324 44.0341C143.44 44.9053 141.252 45.3409 138.762 45.3409C136.252 45.3409 134.055 44.9053 132.171 44.0341C130.286 43.1534 128.818 41.9081 127.767 40.2983C126.726 38.679 126.205 36.7614 126.205 34.5455V15.9091H134.102V33.8636C134.102 34.7633 134.301 35.5682 134.699 36.2784C135.097 36.9792 135.646 37.5284 136.347 37.9261C137.057 38.3239 137.862 38.5227 138.762 38.5227C139.671 38.5227 140.476 38.3239 141.176 37.9261C141.877 37.5284 142.426 36.9792 142.824 36.2784C143.222 35.5682 143.421 34.7633 143.421 33.8636V15.9091Z" fill="white"/>
<path d="M161.37 15.9091V45H153.472V15.9091H161.37Z" fill="white"/>
</svg>
