<svg width="180" height="60" viewBox="0 0 180 60" fill="none" xmlns="http://www.w3.org/2000/svg">
<rect width="180" height="60" rx="4" fill="white"/>
<path d="M18 45.25V16.1591H30.6136C32.8295 16.1591 34.6903 16.4574 36.196 17.054C37.7112 17.6506 38.8523 18.4934 39.6193 19.5824C40.3958 20.6714 40.7841 21.9545 40.7841 23.4318C40.7841 24.5019 40.5473 25.4773 40.0739 26.358C39.6098 27.2386 38.9564 27.9773 38.1136 28.5739C37.2708 29.161 36.286 29.5682 35.1591 29.7955V30.0795C36.4091 30.1269 37.5455 30.4441 38.5682 31.0312C39.5909 31.6089 40.4053 32.4091 41.0114 33.4318C41.6174 34.4451 41.9205 35.6383 41.9205 37.0114C41.9205 38.6023 41.5038 40.018 40.6705 41.2585C39.8466 42.4991 38.6723 43.4744 37.1477 44.1847C35.6231 44.8949 33.8049 45.25 31.6932 45.25H18ZM25.8977 38.9432H29.5909C30.9167 38.9432 31.911 38.697 32.5739 38.2045C33.2367 37.7027 33.5682 36.964 33.5682 35.9886C33.5682 35.3068 33.4119 34.7292 33.0994 34.2557C32.7869 33.7822 32.3419 33.4223 31.7642 33.1761C31.196 32.9299 30.5095 32.8068 29.7045 32.8068H25.8977V38.9432ZM25.8977 27.9205H29.1364C29.8277 27.9205 30.4384 27.8116 30.9688 27.5938C31.4991 27.3759 31.911 27.0634 32.2045 26.6562C32.5076 26.2396 32.6591 25.733 32.6591 25.1364C32.6591 24.2367 32.3371 23.5502 31.6932 23.0767C31.0492 22.5938 30.2348 22.3523 29.25 22.3523H25.8977V27.9205Z" fill="black"/>
<path d="M49.3119 45.5909C47.9199 45.5909 46.6888 45.3636 45.6187 44.9091C44.5581 44.4451 43.7248 43.7443 43.1187 42.8068C42.5127 41.8693 42.2097 40.6761 42.2097 39.2273C42.2097 38.0341 42.4133 37.0161 42.8205 36.1733C43.2277 35.321 43.7958 34.625 44.525 34.0852C45.2542 33.5455 46.1017 33.1335 47.0676 32.8494C48.043 32.5653 49.0941 32.3807 50.221 32.2955C51.4426 32.2008 52.4227 32.0871 53.1614 31.9545C53.9095 31.8125 54.4492 31.6184 54.7807 31.3722C55.1121 31.1165 55.2778 30.7803 55.2778 30.3636V30.3068C55.2778 29.7386 55.06 29.303 54.6244 29C54.1888 28.697 53.6301 28.5455 52.9483 28.5455C52.2002 28.5455 51.5894 28.7112 51.1159 29.0426C50.6519 29.3646 50.3725 29.8617 50.2778 30.5341H43.0619C43.1566 29.2083 43.578 27.9867 44.3261 26.8693C45.0837 25.7424 46.1869 24.8428 47.6358 24.1705C49.0847 23.4886 50.8934 23.1477 53.0619 23.1477C54.6244 23.1477 56.0259 23.3324 57.2665 23.7017C58.507 24.0616 59.5629 24.5682 60.4341 25.2216C61.3053 25.8655 61.9682 26.6231 62.4227 27.4943C62.8867 28.3561 63.1188 29.2936 63.1188 30.3068V45.25H55.7892V42.1818H55.6188C55.1831 42.9962 54.6528 43.6544 54.0278 44.1562C53.4123 44.6581 52.7068 45.0227 51.9114 45.25C51.1254 45.4773 50.2589 45.5909 49.3119 45.5909ZM51.8688 40.6477C52.4653 40.6477 53.0241 40.5246 53.5449 40.2784C54.0752 40.0322 54.5061 39.6771 54.8375 39.2131C55.1689 38.7491 55.3347 38.1856 55.3347 37.5227V35.7045C55.1263 35.7898 54.9038 35.8703 54.667 35.946C54.4398 36.0218 54.1936 36.0928 53.9284 36.1591C53.6727 36.2254 53.3981 36.2869 53.1045 36.3438C52.8205 36.4006 52.5222 36.4527 52.2097 36.5C51.6036 36.5947 51.1064 36.7509 50.7182 36.9688C50.3394 37.1771 50.0553 37.4375 49.8659 37.75C49.686 38.053 49.596 38.3939 49.596 38.7727C49.596 39.3788 49.8091 39.8428 50.2352 40.1648C50.6614 40.4867 51.2059 40.6477 51.8688 40.6477Z" fill="black"/>
<path d="M85.2084 30.5341H77.9925C77.9546 30.089 77.7983 29.7055 77.5237 29.3835C77.2491 29.0616 76.894 28.8153 76.4584 28.6449C76.0322 28.465 75.5588 28.375 75.0379 28.375C74.3656 28.375 73.7879 28.4981 73.305 28.7443C72.822 28.9905 72.5853 29.3409 72.5947 29.7955C72.5853 30.1174 72.7226 30.4157 73.0067 30.6903C73.3002 30.965 73.8637 31.178 74.697 31.3295L79.1288 32.125C81.3637 32.5322 83.0256 33.2187 84.1146 34.1847C85.2131 35.1411 85.7671 36.4242 85.7766 38.0341C85.7671 39.5871 85.3031 40.9366 84.3845 42.0824C83.4754 43.2187 82.2302 44.0994 80.6487 44.7244C79.0767 45.34 77.2822 45.6477 75.2652 45.6477C71.9319 45.6477 69.323 44.9659 67.4385 43.6023C65.5635 42.2386 64.5171 40.4394 64.2993 38.2045H72.0834C72.1875 38.8958 72.5285 39.4309 73.1061 39.8097C73.6932 40.179 74.4319 40.3636 75.322 40.3636C76.0417 40.3636 76.6336 40.2405 77.0976 39.9943C77.5711 39.7481 77.8125 39.3977 77.822 38.9432C77.8125 38.5265 77.6042 38.1951 77.197 37.9489C76.7993 37.7027 76.1743 37.5038 75.322 37.3523L71.4584 36.6705C69.233 36.2822 67.5663 35.5436 66.4584 34.4545C65.3504 33.3655 64.8012 31.964 64.8107 30.25C64.8012 28.7348 65.1989 27.4517 66.0038 26.4006C66.8182 25.34 67.9783 24.535 69.4839 23.9858C70.9991 23.4271 72.7936 23.1477 74.8675 23.1477C78.0209 23.1477 80.5067 23.8011 82.3249 25.108C84.1525 26.4148 85.1137 28.2235 85.2084 30.5341Z" fill="black"/>
<path d="M87.1808 45.25V23.4318H95.0217V45.25H87.1808ZM91.1013 21.1591C90.0407 21.1591 89.1316 20.8087 88.374 20.108C87.6164 19.4072 87.2376 18.5644 87.2376 17.5795C87.2376 16.5947 87.6164 15.7519 88.374 15.0511C89.1316 14.3504 90.0407 14 91.1013 14C92.1713 14 93.0804 14.3504 93.8285 15.0511C94.5861 15.7519 94.9649 16.5947 94.9649 17.5795C94.9649 18.5644 94.5861 19.4072 93.8285 20.108C93.0804 20.8087 92.1713 21.1591 91.1013 21.1591Z" fill="black"/>
<path d="M107.928 45.6477C105.561 45.6477 103.534 45.179 101.849 44.2415C100.163 43.2945 98.8704 41.9782 97.9707 40.2926C97.0711 38.5975 96.6213 36.6326 96.6213 34.3977C96.6213 32.1629 97.0711 30.2027 97.9707 28.517C98.8704 26.822 100.163 25.5057 101.849 24.5682C103.534 23.6212 105.561 23.1477 107.928 23.1477C110.068 23.1477 111.92 23.536 113.482 24.3125C115.054 25.0795 116.271 26.1686 117.133 27.5795C117.994 28.9811 118.43 30.6288 118.439 32.5227H111.167C111.063 31.3769 110.731 30.5057 110.172 29.9091C109.623 29.303 108.913 29 108.042 29C107.36 29 106.763 29.1989 106.252 29.5966C105.741 29.9848 105.343 30.5767 105.059 31.3722C104.775 32.1581 104.633 33.1477 104.633 34.3409C104.633 35.5341 104.775 36.5284 105.059 37.3239C105.343 38.1098 105.741 38.7017 106.252 39.0994C106.763 39.4877 107.36 39.6818 108.042 39.6818C108.619 39.6818 109.131 39.5492 109.576 39.2841C110.021 39.0095 110.381 38.6117 110.655 38.0909C110.939 37.5606 111.11 36.9167 111.167 36.1591H118.439C118.411 38.0814 117.971 39.7576 117.118 41.1875C116.266 42.608 115.059 43.7064 113.496 44.483C111.943 45.2595 110.087 45.6477 107.928 45.6477Z" fill="black"/>
<path d="M143.546 16.1591H151.443V34.7955C151.443 37.0114 150.913 38.929 149.852 40.5483C148.801 42.1581 147.333 43.4034 145.449 44.2841C143.565 45.1553 141.377 45.5909 138.887 45.5909C136.377 45.5909 134.18 45.1553 132.296 44.2841C130.411 43.4034 128.943 42.1581 127.892 40.5483C126.851 38.929 126.33 37.0114 126.33 34.7955V16.1591H134.227V34.1136C134.227 35.0133 134.426 35.8182 134.824 36.5284C135.222 37.2292 135.771 37.7784 136.472 38.1761C137.182 38.5739 137.987 38.7727 138.887 38.7727C139.796 38.7727 140.601 38.5739 141.301 38.1761C142.002 37.7784 142.551 37.2292 142.949 36.5284C143.347 35.8182 143.546 35.0133 143.546 34.1136V16.1591Z" fill="black"/>
<path d="M161.495 16.1591V45.25H153.597V16.1591H161.495Z" fill="black"/>
</svg>
